<svg width="72" height="79" viewBox="0 0 72 79" fill="none" xmlns="http://www.w3.org/2000/svg">
<path d="M37.4758 15.7225L23.0041 50.9473C22.8399 51.44 22.5525 51.83 22.1419 52.1174C21.7314 52.4048 21.3003 52.5485 20.8487 52.5485C20.0687 52.5485 19.4939 52.3432 19.1244 51.9326C18.7549 51.5221 18.5702 51.0294 18.5702 50.4547C18.5291 50.1673 18.5702 49.8594 18.6934 49.5309L34.643 10.7344C34.8483 10.1596 35.1562 9.7491 35.5668 9.50278C36.0184 9.21539 36.511 9.09223 37.0447 9.13329C37.5784 9.13329 38.0506 9.27698 38.4611 9.56436C38.9127 9.85174 39.2206 10.2418 39.3848 10.7344L55.2729 49.1615C55.3961 49.4899 55.4577 49.8183 55.4577 50.1468C55.4577 50.8857 55.2114 51.481 54.7187 51.9326C54.2261 52.3432 53.6718 52.5485 53.056 52.5485C52.5633 52.5485 52.1117 52.4048 51.7012 52.1174C51.2907 51.83 50.9827 51.4195 50.7775 50.8857L36.121 15.661L37.4758 15.7225ZM26.0832 40.9095L28.177 36.1061H46.4667L47.3905 40.9095H26.0832Z" fill="white"/>
<path d="M50.3463 24.2239L50.621 30.0542C50.6311 30.269 50.332 30.3315 50.2552 30.1306C50.0484 29.6793 49.3728 29.8254 49.3709 30.3218L49.3585 33.47C49.3568 33.9134 49.6087 34.3189 50.0072 34.5137L50.5968 34.802C50.7988 34.9007 51.0239 34.9442 51.2295 35.0353C51.5067 35.1581 51.7519 35.442 52.1203 36.1666C52.1996 36.3226 52.2552 36.4903 52.2882 36.6622C52.4866 37.6955 52.5523 38.3328 52.4879 39.2181C52.478 39.3554 52.4612 39.4836 52.3909 39.6019C50.6633 42.5065 27.5839 49.3511 21.2882 51.4655C20.3954 51.7654 19.3487 51.4278 19.4938 50.4972C19.6464 49.5185 20.2128 48.3522 20.6593 47.3222C21.1394 46.2148 22.2241 45.002 23.4121 44.7884L50.6044 39.8988C51.3745 39.7603 52.0647 39.1878 51.9893 38.409C51.4821 33.1707 37.9283 30.0563 31.2546 30.535C29.7893 30.6401 28.062 29.6344 27.6946 28.212C27.6024 27.8555 27.5156 27.566 27.4371 27.3346C26.8146 26.574 26.9933 26.0262 27.4371 27.3346C27.6984 27.6538 28.1008 28.0105 28.6839 28.2832C28.9125 28.3901 29.1676 28.4272 29.4198 28.4227L40.3084 28.2292C40.6879 28.2225 41.0582 28.1116 41.3789 27.9086L48.621 23.3262C49.3501 22.8649 50.3057 23.3621 50.3463 24.2239Z" fill="white" stroke="white" stroke-width="0.0279858"/>
<path d="M1.50063 70.5747H0.263931L3.04274 62.8529H4.38879L7.1676 70.5747H5.9309L3.74781 64.2555H3.68749L1.50063 70.5747ZM1.70801 67.5508H5.71975V68.5311H1.70801V67.5508ZM12.3737 66.1972L11.3519 66.3782C11.3092 66.2475 11.2413 66.1231 11.1483 66.0049C11.0578 65.8868 10.9347 65.79 10.7788 65.7146C10.623 65.6392 10.4282 65.6015 10.1944 65.6015C9.87518 65.6015 9.60874 65.6731 9.39508 65.8164C9.18142 65.9572 9.07459 66.1394 9.07459 66.3631C9.07459 66.5567 9.14623 66.7125 9.28951 66.8307C9.43278 66.9488 9.66404 67.0456 9.98327 67.121L10.9033 67.3321C11.4361 67.4553 11.8333 67.6451 12.0947 67.9015C12.3561 68.1579 12.4868 68.4909 12.4868 68.9006C12.4868 69.2475 12.3863 69.5567 12.1852 69.8282C11.9866 70.0971 11.7089 70.3083 11.3519 70.4616C10.9975 70.6149 10.5865 70.6916 10.119 70.6916C9.47049 70.6916 8.94137 70.5533 8.53165 70.2768C8.12193 69.9978 7.87056 69.6019 7.77756 69.0892L8.86722 68.9233C8.93508 69.2073 9.07459 69.4222 9.28574 69.568C9.49688 69.7113 9.77212 69.7829 10.1115 69.7829C10.481 69.7829 10.7763 69.7062 10.9975 69.5529C11.2187 69.3971 11.3293 69.2073 11.3293 68.9836C11.3293 68.8026 11.2614 68.6505 11.1257 68.5274C10.9925 68.4042 10.7876 68.3112 10.5111 68.2483L9.53081 68.0334C8.99038 67.9103 8.59072 67.7142 8.33181 67.4452C8.07542 67.1763 7.94723 66.8357 7.94723 66.4235C7.94723 66.0816 8.04275 65.7825 8.23378 65.5261C8.42482 65.2697 8.68875 65.0699 9.02558 64.9266C9.3624 64.7808 9.74824 64.7079 10.1831 64.7079C10.809 64.7079 11.3017 64.8436 11.6611 65.1151C12.0206 65.3841 12.2581 65.7448 12.3737 66.1972ZM16.313 64.7833V65.6882H13.1496V64.7833H16.313ZM13.9979 63.3958H15.1253V68.8742C15.1253 69.0929 15.158 69.2576 15.2233 69.3682C15.2887 69.4763 15.3729 69.5504 15.4759 69.5906C15.5815 69.6283 15.6959 69.6472 15.8191 69.6472C15.9095 69.6472 15.9887 69.6409 16.0566 69.6283C16.1245 69.6158 16.1772 69.6057 16.2149 69.5982L16.4186 70.5295C16.3532 70.5546 16.2602 70.5797 16.1395 70.6049C16.0189 70.6325 15.8681 70.6476 15.6871 70.6501C15.3905 70.6551 15.114 70.6024 14.8576 70.4918C14.6012 70.3812 14.3938 70.2102 14.2355 69.979C14.0771 69.7477 13.9979 69.4574 13.9979 69.108V63.3958ZM17.4433 70.5747V64.7833H18.5329V65.7033H18.5932C18.6988 65.3916 18.8848 65.1465 19.1513 64.9681C19.4202 64.7871 19.7244 64.6966 20.0637 64.6966C20.1341 64.6966 20.217 64.6991 20.3126 64.7041C20.4106 64.7092 20.4873 64.7154 20.5426 64.723V65.8013C20.4973 65.7888 20.4169 65.7749 20.3012 65.7599C20.1856 65.7423 20.07 65.7335 19.9544 65.7335C19.6879 65.7335 19.4504 65.79 19.2418 65.9031C19.0356 66.0137 18.8723 66.1683 18.7516 66.3669C18.6309 66.563 18.5706 66.7867 18.5706 67.038V70.5747H17.4433ZM23.6335 70.6916C23.0905 70.6916 22.6167 70.5672 22.212 70.3183C21.8073 70.0695 21.4931 69.7213 21.2694 69.2739C21.0457 68.8265 20.9338 68.3036 20.9338 67.7054C20.9338 67.1046 21.0457 66.5793 21.2694 66.1294C21.4931 65.6794 21.8073 65.33 22.212 65.0812C22.6167 64.8323 23.0905 64.7079 23.6335 64.7079C24.1764 64.7079 24.6502 64.8323 25.0549 65.0812C25.4596 65.33 25.7738 65.6794 25.9975 66.1294C26.2212 66.5793 26.3331 67.1046 26.3331 67.7054C26.3331 68.3036 26.2212 68.8265 25.9975 69.2739C25.7738 69.7213 25.4596 70.0695 25.0549 70.3183C24.6502 70.5672 24.1764 70.6916 23.6335 70.6916ZM23.6372 69.7452C23.9891 69.7452 24.2807 69.6522 24.512 69.4662C24.7432 69.2802 24.9142 69.0326 25.0248 68.7234C25.1379 68.4142 25.1944 68.0737 25.1944 67.7016C25.1944 67.3321 25.1379 66.9928 25.0248 66.6836C24.9142 66.3719 24.7432 66.1218 24.512 65.9333C24.2807 65.7448 23.9891 65.6505 23.6372 65.6505C23.2828 65.6505 22.9887 65.7448 22.755 65.9333C22.5237 66.1218 22.3515 66.3719 22.2384 66.6836C22.1278 66.9928 22.0725 67.3321 22.0725 67.7016C22.0725 68.0737 22.1278 68.4142 22.2384 68.7234C22.3515 69.0326 22.5237 69.2802 22.755 69.4662C22.9887 69.6522 23.2828 69.7452 23.6372 69.7452ZM28.2175 70.6463C28.0113 70.6463 27.8341 70.5735 27.6858 70.4277C27.5375 70.2794 27.4634 70.1009 27.4634 69.8923C27.4634 69.6861 27.5375 69.5102 27.6858 69.3644C27.8341 69.2161 28.0113 69.1419 28.2175 69.1419C28.4236 69.1419 28.6008 69.2161 28.7491 69.3644C28.8974 69.5102 28.9716 69.6861 28.9716 69.8923C28.9716 70.0305 28.9364 70.1574 28.866 70.2731C28.7981 70.3862 28.7076 70.4767 28.5945 70.5445C28.4814 70.6124 28.3557 70.6463 28.2175 70.6463ZM34.6669 64.8813C34.6267 64.5244 34.4608 64.2479 34.1692 64.0518C33.8776 63.8533 33.5106 63.754 33.0682 63.754C32.7515 63.754 32.4775 63.8043 32.2463 63.9048C32.015 64.0028 31.8353 64.1386 31.7071 64.312C31.5814 64.4829 31.5186 64.6777 31.5186 64.8964C31.5186 65.0799 31.5613 65.2383 31.6468 65.3715C31.7347 65.5047 31.8491 65.6166 31.9899 65.7071C32.1332 65.795 32.2865 65.8692 32.4499 65.9295C32.6133 65.9873 32.7704 66.0351 32.9212 66.0728L33.6753 66.2689C33.9216 66.3292 34.1742 66.4109 34.4331 66.5139C34.692 66.617 34.9321 66.7527 35.1533 66.9212C35.3745 67.0896 35.5529 67.2982 35.6887 67.547C35.8269 67.7959 35.8961 68.0938 35.8961 68.4406C35.8961 68.878 35.7829 69.2664 35.5567 69.6057C35.333 69.945 35.0075 70.2127 34.5802 70.4088C34.1554 70.6049 33.6413 70.7029 33.0381 70.7029C32.4599 70.7029 31.9597 70.6112 31.5374 70.4277C31.1151 70.2442 30.7846 69.984 30.5458 69.6472C30.307 69.3078 30.175 68.9057 30.1499 68.4406H31.3187C31.3414 68.7197 31.4319 68.9522 31.5902 69.1382C31.7511 69.3217 31.9559 69.4587 32.2048 69.5491C32.4562 69.6371 32.7314 69.6811 33.0305 69.6811C33.3598 69.6811 33.6526 69.6296 33.909 69.5265C34.1679 69.421 34.3715 69.2752 34.5198 69.0892C34.6681 68.9006 34.7423 68.6807 34.7423 68.4293C34.7423 68.2006 34.6769 68.0133 34.5462 67.8675C34.418 67.7217 34.2433 67.6011 34.0221 67.5056C33.8035 67.4101 33.5559 67.3258 33.2794 67.253L32.3669 67.0041C31.7486 66.8357 31.2584 66.5881 30.8964 66.2613C30.537 65.9346 30.3573 65.5022 30.3573 64.9643C30.3573 64.5194 30.4779 64.131 30.7192 63.7992C30.9605 63.4674 31.2873 63.2098 31.6996 63.0263C32.1118 62.8403 32.5768 62.7473 33.0946 62.7473C33.6174 62.7473 34.0787 62.839 34.4784 63.0225C34.8805 63.206 35.1973 63.4586 35.4285 63.7804C35.6598 64.0996 35.7804 64.4666 35.7905 64.8813H34.6669ZM39.577 70.6916C39.0064 70.6916 38.515 70.5697 38.1028 70.3259C37.6931 70.0795 37.3764 69.7339 37.1526 69.289C36.9314 68.8416 36.8208 68.3175 36.8208 67.7167C36.8208 67.1235 36.9314 66.6007 37.1526 66.1482C37.3764 65.6958 37.688 65.3426 38.0877 65.0887C38.4899 64.8348 38.9599 64.7079 39.4979 64.7079C39.8246 64.7079 40.1413 64.7619 40.448 64.87C40.7547 64.9781 41.0299 65.1478 41.2737 65.379C41.5175 65.6103 41.7098 65.9107 41.8506 66.2802C41.9914 66.6472 42.0617 67.0933 42.0617 67.6187V68.0184H37.458V67.1738H40.957C40.957 66.8772 40.8967 66.6145 40.776 66.3858C40.6554 66.1545 40.4857 65.9723 40.267 65.839C40.0508 65.7058 39.797 65.6392 39.5054 65.6392C39.1887 65.6392 38.9122 65.7171 38.6759 65.873C38.4421 66.0263 38.2611 66.2274 38.133 66.4762C38.0073 66.7226 37.9444 66.9903 37.9444 67.2793V67.9392C37.9444 68.3263 38.0123 68.6556 38.148 68.927C38.2863 69.1985 38.4786 69.4059 38.7249 69.5491C38.9712 69.6899 39.2591 69.7603 39.5883 69.7603C39.802 69.7603 39.9968 69.7301 40.1728 69.6698C40.3487 69.607 40.5008 69.514 40.629 69.3908C40.7572 69.2676 40.8552 69.1155 40.9231 68.9346L41.9901 69.1269C41.9046 69.4411 41.7513 69.7163 41.5301 69.9526C41.3114 70.1864 41.0362 70.3686 40.7044 70.4993C40.3751 70.6275 39.9993 70.6916 39.577 70.6916ZM45.6353 70.6916C45.0747 70.6916 44.5921 70.5647 44.1874 70.3108C43.7852 70.0544 43.4761 69.7012 43.2599 69.2513C43.0437 68.8013 42.9356 68.2861 42.9356 67.7054C42.9356 67.1172 43.0462 66.5982 43.2674 66.1482C43.4886 65.6958 43.8003 65.3426 44.2025 65.0887C44.6047 64.8348 45.0785 64.7079 45.624 64.7079C46.0638 64.7079 46.456 64.7896 46.8003 64.953C47.1447 65.1139 47.4225 65.3401 47.6336 65.6317C47.8473 65.9232 47.9742 66.2638 48.0144 66.6535H46.9172C46.8569 66.382 46.7186 66.1482 46.5025 65.9522C46.2888 65.7561 46.0023 65.6581 45.6428 65.6581C45.3286 65.6581 45.0534 65.741 44.8171 65.9069C44.5833 66.0703 44.4011 66.3041 44.2704 66.6082C44.1397 66.9098 44.0743 67.2668 44.0743 67.679C44.0743 68.1013 44.1384 68.4658 44.2666 68.7724C44.3948 69.0791 44.5758 69.3166 44.8095 69.4851C45.0458 69.6535 45.3236 69.7377 45.6428 69.7377C45.8565 69.7377 46.05 69.6987 46.2235 69.6208C46.3994 69.5404 46.5465 69.426 46.6646 69.2777C46.7853 69.1294 46.8695 68.9509 46.9172 68.7423H48.0144C47.9742 69.1168 47.8523 69.4511 47.6487 69.7452C47.4451 70.0393 47.1724 70.2706 46.8305 70.439C46.4912 70.6074 46.0927 70.6916 45.6353 70.6916ZM52.7719 68.1729V64.7833H53.903V70.5747H52.7945V69.5718H52.7342C52.6009 69.8809 52.3873 70.1386 52.0932 70.3447C51.8016 70.5483 51.4384 70.6501 51.0035 70.6501C50.6315 70.6501 50.3022 70.5684 50.0157 70.405C49.7316 70.2391 49.5079 69.9941 49.3445 69.6698C49.1837 69.3455 49.1032 68.9446 49.1032 68.467V64.7833H50.2306V68.3313C50.2306 68.7259 50.3399 69.0401 50.5586 69.2739C50.7773 69.5077 51.0613 69.6246 51.4107 69.6246C51.6219 69.6246 51.8318 69.5718 52.0404 69.4662C52.2515 69.3606 52.4262 69.201 52.5645 68.9874C52.7052 68.7737 52.7744 68.5022 52.7719 68.1729ZM55.301 70.5747V64.7833H56.3906V65.7033H56.451C56.5565 65.3916 56.7425 65.1465 57.009 64.9681C57.2779 64.7871 57.5821 64.6966 57.9214 64.6966C57.9918 64.6966 58.0748 64.6991 58.1703 64.7041C58.2683 64.7092 58.345 64.7154 58.4003 64.723V65.8013C58.355 65.7888 58.2746 65.7749 58.159 65.7599C58.0433 65.7423 57.9277 65.7335 57.8121 65.7335C57.5456 65.7335 57.3081 65.79 57.0995 65.9031C56.8933 66.0137 56.73 66.1683 56.6093 66.3669C56.4887 66.563 56.4283 66.7867 56.4283 67.038V70.5747H55.301ZM61.5477 70.6916C60.9771 70.6916 60.4857 70.5697 60.0735 70.3259C59.6638 70.0795 59.3471 69.7339 59.1233 69.289C58.9021 68.8416 58.7915 68.3175 58.7915 67.7167C58.7915 67.1235 58.9021 66.6007 59.1233 66.1482C59.3471 65.6958 59.6587 65.3426 60.0584 65.0887C60.4606 64.8348 60.9306 64.7079 61.4686 64.7079C61.7953 64.7079 62.112 64.7619 62.4187 64.87C62.7254 64.9781 63.0006 65.1478 63.2444 65.379C63.4882 65.6103 63.6805 65.9107 63.8213 66.2802C63.9621 66.6472 64.0324 67.0933 64.0324 67.6187V68.0184H59.4287V67.1738H62.9277C62.9277 66.8772 62.8674 66.6145 62.7467 66.3858C62.6261 66.1545 62.4564 65.9723 62.2377 65.839C62.0215 65.7058 61.7677 65.6392 61.4761 65.6392C61.1594 65.6392 60.8829 65.7171 60.6466 65.873C60.4128 66.0263 60.2318 66.2274 60.1037 66.4762C59.978 66.7226 59.9151 66.9903 59.9151 67.2793V67.9392C59.9151 68.3263 59.983 68.6556 60.1187 68.927C60.257 69.1985 60.4493 69.4059 60.6956 69.5491C60.9419 69.6899 61.2298 69.7603 61.559 69.7603C61.7727 69.7603 61.9675 69.7301 62.1435 69.6698C62.3194 69.607 62.4715 69.514 62.5997 69.3908C62.7279 69.2676 62.8259 69.1155 62.8938 68.9346L63.9608 69.1269C63.8753 69.4411 63.722 69.7163 63.5008 69.9526C63.2821 70.1864 63.0069 70.3686 62.6751 70.4993C62.3458 70.6275 61.97 70.6916 61.5477 70.6916Z" fill="white"/>
</svg>
